<svg
  xmlns="http://www.w3.org/2000/svg"
  viewBox="0 0 24 24"
  width="48px"
  height="48px"
  fill="white"
>
  <path d="M23 3a10.9 10.9 0 0 1-3.1.9A5.42 5.42 0 0 0 22.4 2a10.89 10.89 0 0 1-3.5 1.3A5.41 5.41 0 0 0 16.6 2a5.43 5.43 0 0 0-5.4 5.4c0 .4.05.8.1 1.2A15.42 15.42 0 0 1 1.6 2.5a5.43 5.43 0 0 0 1.7 7.2A5.42 5.42 0 0 1 1 9.7v.1a5.4 5.4 0 0 0 4.3 5.3 5.36 5.36 0 0 1-2.4.1 5.43 5.43 0 0 0 5.1 3.8A10.8 10.8 0 0 1 0 20.8a15.3 15.3 0 0 0 8.3 2.4c10 0 15.5-8.3 15.5-15.5 0-.2 0-.5-.1-.7A11.1 11.1 0 0 0 23 3z" />
</svg>
